<svg width="25" height="28" viewBox="0 0 25 28" fill="none" xmlns="http://www.w3.org/2000/svg">
<path d="M20.8333 19.7912C19.7778 19.7912 18.8333 20.2129 18.1111 20.8735L8.20833 15.0402C8.27778 14.7169 8.33333 14.3936 8.33333 14.0562C8.33333 13.7189 8.27778 13.3956 8.20833 13.0723L18 7.29518C18.75 7.99799 19.7361 8.43373 20.8333 8.43373C23.1389 8.43373 25 6.5502 25 4.21687C25 1.88353 23.1389 0 20.8333 0C18.5278 0 16.6667 1.88353 16.6667 4.21687C16.6667 4.55422 16.7222 4.87751 16.7917 5.2008L7 10.9779C6.25 10.2751 5.26389 9.83936 4.16667 9.83936C1.86111 9.83936 0 11.7229 0 14.0562C0 16.3896 1.86111 18.2731 4.16667 18.2731C5.26389 18.2731 6.25 17.8373 7 17.1345L16.8889 22.9819C16.8194 23.2771 16.7778 23.5863 16.7778 23.8956C16.7778 26.1586 18.5972 28 20.8333 28C23.0694 28 24.8889 26.1586 24.8889 23.8956C24.8889 21.6325 23.0694 19.7912 20.8333 19.7912Z" fill="#787878"/>
</svg>
